<svg width="256" height="256" viewBox="0 0 256 256" fill="none" xmlns="http://www.w3.org/2000/svg">
<path d="M194.164 157.451H84.3514L59.3139 57.0446H45.9401L74.2134 170.427H204.861L223.013 77.0266H123.959L127.226 90.003H207.272L194.164 157.451Z" fill="#322A29"/>
<path fill-rule="evenodd" clip-rule="evenodd" d="M89.3508 189.399C86.6885 189.399 84.5443 191.552 84.5443 194.191C84.5443 196.83 86.6885 198.983 89.3508 198.983C92.0131 198.983 94.1573 196.83 94.1573 194.191C94.1573 191.552 92.0131 189.399 89.3508 189.399ZM71.5678 194.191C71.5678 184.37 79.5373 176.422 89.3508 176.422C99.1643 176.422 107.134 184.37 107.134 194.191C107.134 204.012 99.1643 211.96 89.3508 211.96C79.5373 211.96 71.5678 204.012 71.5678 194.191Z" fill="#322A29"/>
<path fill-rule="evenodd" clip-rule="evenodd" d="M187.764 189.399C185.102 189.399 182.958 191.552 182.958 194.191C182.958 196.83 185.102 198.983 187.764 198.983C190.427 198.983 192.571 196.83 192.571 194.191C192.571 191.552 190.427 189.399 187.764 189.399ZM169.981 194.191C169.981 184.37 177.951 176.422 187.764 176.422C197.578 176.422 205.547 184.37 205.547 194.191C205.547 204.012 197.578 211.96 187.764 211.96C177.951 211.96 169.981 204.012 169.981 194.191Z" fill="#322A29"/>
<path d="M45.9364 44.0681H32.96V57.0446H45.9364V44.0681Z" fill="#FF7800"/>
</svg>
